<svg width="432" height="432" viewBox="0 0 432 432" fill="none" xmlns="http://www.w3.org/2000/svg">
<rect x="10" y="10" width="410" height="410" rx="100" fill="white"/>
<path d="M129.75 300C124.583 300 120.583 298.583 117.75 295.75C115.083 292.75 113.75 288.667 113.75 283.5V148.5H65C60.6667 148.5 57.25 147.333 54.75 145C52.4167 142.5 51.25 139.167 51.25 135C51.25 130.667 52.4167 127.417 54.75 125.25C57.25 122.917 60.6667 121.75 65 121.75H194.5C198.833 121.75 202.167 122.917 204.5 125.25C207 127.417 208.25 130.667 208.25 135C208.25 139.167 207 142.5 204.5 145C202.167 147.333 198.833 148.5 194.5 148.5H145.75V283.5C145.75 288.667 144.417 292.75 141.75 295.75C139.083 298.583 135.083 300 129.75 300ZM242.523 300C237.357 300 233.357 298.583 230.523 295.75C227.857 292.75 226.523 288.667 226.523 283.5V138C226.523 132.667 227.94 128.667 230.773 126C233.607 123.167 237.607 121.75 242.773 121.75H303.023C322.357 121.75 337.273 126.417 347.773 135.75C358.273 144.917 363.523 157.833 363.523 174.5C363.523 185.333 361.107 194.667 356.273 202.5C351.607 210.333 344.773 216.333 335.773 220.5C326.773 224.667 315.857 226.75 303.023 226.75L305.273 223H313.523C320.357 223 326.273 224.667 331.273 228C336.44 231.333 340.94 236.583 344.773 243.75L363.523 278.5C365.523 282 366.44 285.417 366.273 288.75C366.107 292.083 364.857 294.833 362.523 297C360.19 299 356.773 300 352.273 300C347.773 300 344.107 299.083 341.273 297.25C338.44 295.25 335.94 292.25 333.773 288.25L308.523 241.75C305.523 236.083 301.94 232.333 297.773 230.5C293.773 228.5 288.607 227.5 282.273 227.5H258.523V283.5C258.523 288.667 257.19 292.75 254.523 295.75C251.857 298.583 247.857 300 242.523 300ZM258.523 203.75H297.523C309.023 203.75 317.69 201.417 323.523 196.75C329.523 191.917 332.523 184.75 332.523 175.25C332.523 165.917 329.523 158.917 323.523 154.25C317.69 149.417 309.023 147 297.523 147H258.523V203.75Z" fill="#6248A9"/>
</svg>
